<svg xmlns="http://www.w3.org/2000/svg" width="31" height="16" viewBox="0 0 31 16" fill="none">
<path d="M10 12.8516H20.6456L22.5588 12.788M4.5 12.7693L2.25126 12.7296C1.46693 12.7158 0.567655 12.4663 0.503313 11.6845C0.444354 10.9677 1.17034 7.65057 2.83851 6.74968C4.50608 5.84879 6.52762 5.48025 6.97885 5.15224C7.43048 4.82485 12.4932 1.65105 12.4932 1.65105C12.4932 1.65105 13.239 1.1183 14.9266 1.0364C16.6142 0.9545 27.2231 1.0364 27.2231 1.0364C27.2231 1.0364 27.9102 0.974771 28.1649 1.48684C28.4202 1.99871 29.8525 5.95096 29.8525 5.95096L30.4999 11.8886C30.4999 11.8886 30.52 12.3397 29.931 12.4005C29.685 12.4264 28.848 12.4951 27.9578 12.5664M7.2458 15C8.63284 15 9.76455 13.7773 9.76455 12.2779C9.76455 10.7791 8.63284 9.55636 7.2458 9.55636C5.85819 9.55636 4.72705 10.7791 4.72705 12.2779C4.72705 13.7773 5.85819 15 7.2458 15ZM25.269 15C26.6559 15 27.7875 13.7773 27.7875 12.2779C27.7875 10.7791 26.6559 9.55636 25.269 9.55636C23.8816 9.55636 22.75 10.7791 22.75 12.2779C22.75 13.7773 23.8816 15 25.269 15Z" stroke="#404040" stroke-miterlimit="10"/>
</svg>