<svg xmlns="http://www.w3.org/2000/svg" width="21" height="21" viewBox="0 0 21 21" fill="none">
  <path d="M7.4375 16.625H7C3.5 16.625 1.75 15.75 1.75 11.375V7C1.75 3.5 3.5 1.75 7 1.75H14C17.5 1.75 19.25 3.5 19.25 7V11.375C19.25 14.875 17.5 16.625 14 16.625H13.5625C13.2912 16.625 13.0287 16.7563 12.8625 16.975L11.55 18.725C10.9725 19.495 10.0275 19.495 9.45 18.725L8.1375 16.975C7.9975 16.7825 7.67375 16.625 7.4375 16.625Z" stroke="#9B9B9B" stroke-width="1.5" stroke-miterlimit="10" stroke-linecap="round" stroke-linejoin="round"/>
  <path d="M13.9967 9.625H14.0045" stroke="#9B9B9B" stroke-width="2" stroke-linecap="round" stroke-linejoin="round"/>
  <path d="M10.4962 9.625H10.504" stroke="#9B9B9B" stroke-width="2" stroke-linecap="round" stroke-linejoin="round"/>
  <path d="M6.99519 9.625H7.00305" stroke="#9B9B9B" stroke-width="2" stroke-linecap="round" stroke-linejoin="round"/>
</svg>