<svg xmlns="http://www.w3.org/2000/svg" width="40" height="40" viewBox="0 0 40 40" fill="none">
  <path d="M29.1498 16L9.33317 27.95C8.1665 28.65 6.6665 27.8167 6.6665 26.45V13.1167C6.6665 7.30002 12.9498 3.66669 17.9998 6.56669L25.6498 10.9667L29.1332 12.9667C30.2832 13.65 30.2998 15.3167 29.1498 16Z" fill="#FEFEFE"/>
  <path d="M30.15 25.7667L23.4 29.6667L16.6667 33.55C14.25 34.9333 11.5167 34.65 9.53334 33.25C8.56668 32.5833 8.68334 31.1 9.70001 30.5L30.8833 17.8C31.8833 17.2 33.2 17.7667 33.3833 18.9167C33.8 21.5 32.7333 24.2833 30.15 25.7667Z" fill="#FEFEFE"/>
</svg>